<?xml version="1.0" encoding="UTF-8"?><svg id="Layer_1" xmlns="http://www.w3.org/2000/svg" viewBox="0 0 346.31 332.36"><defs><style>.cls-1{fill:#e88c1f;}</style></defs><path class="cls-1" d="m346.28,312.23h0c0,11.12-9.01,20.13-20.13,20.13h-166.23C71.6,332.36,0,260.76,0,172.45V20.13C0,9.01,9.01,0,20.13,0h0c11.12,0,20.13,9.01,20.13,20.13v152.31c0,65.97,53.66,119.65,119.65,119.65h166.23c11.12,0,20.13,9.01,20.13,20.13Zm0-134.71v-14.04c0-6.35-5.15-11.5-11.5-11.5h-68.8c-6.35,0-11.5,5.15-11.5,11.5v14.04c0,6.35,5.15,11.5,11.5,11.5h68.8c6.35,0,11.5-5.15,11.5-11.5Zm-20.13,41.52h-170.43c-25.46,0-46.19-20.71-46.19-46.19v-78.74c0-5.43.82-10.66,2.34-15.61,6.68-21.78,26.99-37.66,50.93-37.66h82.49c43.02,0,60.74,22.55,60.72,53.55v5.23c0,11.12,9.01,20.13,20.13,20.13h0c11.12,0,20.13-9.01,20.13-20.13v-5.23C347.89,40.84,307.62.58,249.64.58h-86.86c-35.87,0-67.1,20.31-82.77,50.02-6.88,13-10.76,27.8-10.76,43.5v78.74c0,47.75,38.71,86.46,86.46,86.46h170.43c11.12,0,20.13-9.01,20.13-20.13h0c0-11.12-9.01-20.13-20.13-20.13Z"/></svg>