<?xml version="1.0" encoding="UTF-8"?>
<svg id="Layer_1" data-name="Layer 1" xmlns="http://www.w3.org/2000/svg" viewBox="0 0 290 290">
  <defs>
    <style>
      .cls-1 {
        fill: #e88c1f;
      }

      .cls-2 {
        fill: #1b1b1d;
      }
    </style>
  </defs>
  <path class="cls-2" d="m59.07,0h171.86c32.6,0,59.07,26.47,59.07,59.07v171.86c0,32.6-26.47,59.07-59.07,59.07h-102.91C57.36,290,0,232.64,0,161.98V59.07C0,26.47,26.47,0,59.07,0Z"/>
  <g>
    <path class="cls-1" d="m255,238.5h0c0,6.9-5.6,12.5-12.5,12.5h-103.21c-54.84,0-99.29-44.45-99.29-99.29V57.14c0-6.9,5.6-12.5,12.5-12.5h0c6.9,0,12.5,5.6,12.5,12.5v94.57c0,40.96,33.32,74.29,74.29,74.29h103.21c6.9,0,12.5,5.6,12.5,12.5Z"/>
    <rect class="cls-1" x="198" y="139" width="57" height="23" rx="11.5" ry="11.5"/>
    <path class="cls-1" d="m255,193.14h0c0,6.9-5.6,12.5-12.5,12.5h-105.82c-29.65,0-53.68-24.03-53.68-53.68v-48.89c0-9.75,2.41-18.94,6.68-27.01,9.73-18.45,29.12-31.06,51.39-31.06h53.93c36,0,61,25,59.99,58.25v3.25c0,6.9-5.6,12.5-12.5,12.5h0c-6.9,0-12.5-5.6-12.5-12.5v-3.25c.01-19.25-10.99-33.25-37.7-33.25h-51.22c-14.86,0-27.47,9.86-31.62,23.38-.94,3.07-1.45,6.32-1.45,9.69v48.89c0,15.82,12.87,28.68,28.68,28.68h105.82c6.9,0,12.5,5.6,12.5,12.5Z"/>
  </g>
</svg>